<svg viewBox="0 0 20 16" fill="none" xmlns="http://www.w3.org/2000/svg">
  <path d="M11.2185 7.05215L11.2104 9.10273L15.4979 9.08824L15.4898 11.1388L17.6336 11.1316L17.6417 9.081L19.3577 9.0752L19.3658 7.02462L17.6499 7.03042L17.658 4.97984L15.5141 4.98708L15.506 7.03766L11.2185 7.05215ZM13.3785 2.94373L15.5222 2.93648L15.5141 4.98708L13.3704 4.99432L13.3785 2.94373ZM13.3785 2.94373L11.2347 2.95097L11.2428 0.900391L13.3867 0.893147L13.3785 2.94373ZM13.338 13.1967L15.4817 13.1894L15.4898 11.1388L13.3461 11.1461L13.338 13.1967ZM13.338 13.1967L11.1941 13.2039L11.186 15.2545L13.3299 15.2472L13.338 13.1967Z" fill="currentColor"/>
  <path fill-rule="evenodd" clip-rule="evenodd" d="M3.25809 9.06883L0.404749 9.07485L0.410217 7.0708L3.26356 7.06478L3.25809 9.06883ZM8.01379 9.05879L5.16045 9.06482L5.16591 7.06076L8.01926 7.05474L8.01379 9.05879ZM11.3429 9.05176L9.91614 9.05478L9.92161 7.05072L11.3484 7.04771L11.3429 9.05176Z" fill="currentColor"/>
</svg>
