<svg viewBox="0 0 24 24">
  <path d="m14.7609 11.9983 8.4199 -8.4002c0.3687 -0.3687 0.5759 -0.8688 0.5759 -1.3903s-0.2072 -1.0215 -0.5759 -1.3902c-0.3687 -0.3687 -0.8688 -0.5759 -1.3903 -0.5759s-1.0215 0.2072 -1.3902 0.5759L12 9.2374 3.5997 0.8176C3.231 0.4489 2.7309 0.2417 2.2095 0.2417S1.1879 0.4489 0.8192 0.8176c-0.3687 0.3687 -0.5759 0.8688 -0.5759 1.3902s0.2072 1.0216 0.5759 1.3903l8.4199 8.4002 -8.4199 8.4003c-0.1835 0.1821 -0.3292 0.3986 -0.4286 0.6373 -0.0994 0.2385 -0.1506 0.4945 -0.1506 0.7529 0 0.2587 0.0512 0.5146 0.1506 0.7531 0.0994 0.2387 0.2451 0.4553 0.4286 0.6372 0.182 0.1837 0.3986 0.3293 0.6372 0.4286 0.2386 0.0995 0.4946 0.1506 0.7531 0.1506s0.5144 -0.0511 0.753 -0.1506c0.2386 -0.0993 0.4552 -0.2449 0.6372 -0.4286L12 14.7592l8.4003 8.4199c0.1821 0.1837 0.3987 0.3293 0.6372 0.4286 0.2386 0.0995 0.4946 0.1506 0.753 0.1506s0.5144 -0.0511 0.7531 -0.1506c0.2385 -0.0993 0.4551 -0.2449 0.6372 -0.4286 0.1835 -0.1819 0.3292 -0.3985 0.4286 -0.6372 0.0995 -0.2385 0.1506 -0.4944 0.1506 -0.7531 0 -0.2584 -0.0511 -0.5144 -0.1506 -0.7529 -0.0994 -0.2387 -0.2451 -0.4552 -0.4286 -0.6373l-8.4199 -8.4003Z" fill="currentColor" stroke-width="1"></path>
</svg>