<?xml version="1.0" encoding="UTF-8"?>
<svg width="80px" height="80px" viewBox="0 0 80 80" version="1.1" xmlns="http://www.w3.org/2000/svg" xmlns:xlink="http://www.w3.org/1999/xlink">
    <g stroke="none" stroke-width="1" fill="none" fill-rule="evenodd">
        <g transform="translate(-395, -188)">
            <g transform="translate(395, 188)">
                <circle fill="#0155FF" opacity="0.157628" cx="40" cy="40" r="40"></circle>
                <circle fill="#0155FF" cx="40.0909091" cy="40.0909091" r="29.0909091"></circle>
                <g transform="translate(28, 28)" fill="#FFFFFF" fill-rule="nonzero" stroke="#FFFFFF">
                    <path d="M4.94461215,8.39214755 C5.15658272,8.60406439 5.27567125,8.89151885 5.27567125,9.19125404 C5.27567125,9.49098922 5.15658272,9.77844368 4.94461215,9.99036052 L4.13737815,10.7994106 C1.70062029,13.2360438 1.62674655,17.1633716 3.97014602,19.6899223 L4.13737815,19.8625799 C6.57398663,22.2993625 10.5012746,22.373237 13.0277996,20.0298137 L13.2004555,19.8625799 L14.0085934,19.0544337 C14.4499233,18.6130994 15.1654604,18.6130994 15.6067902,19.0544337 C16.0481201,19.4957681 16.0481201,20.2113124 15.6067902,20.6526467 L14.7986522,21.4607929 C11.4757047,24.7837741 6.12698848,24.8452439 2.72901245,21.6452021 L2.53918139,21.4607929 C-0.78376618,18.1378116 -0.845235287,12.7890412 2.35477407,9.39103066 L2.53918139,9.20119767 L3.34641538,8.39305152 C3.55833007,8.18107879 3.84578162,8.06198906 4.14551376,8.06198906 C4.44524591,8.06198906 4.73269746,8.18107879 4.94461215,8.39305152 L4.94461215,8.39214755 Z M9.20134775,2.53896374 C12.5867522,-0.846321246 18.0754142,-0.846321246 21.4608186,2.53896374 C24.7837662,5.861945 24.8452353,11.2107154 21.6452259,14.6087259 L21.4608186,14.7985589 L20.6526807,15.6067051 C20.2113508,16.0480394 19.4958138,16.0480393 19.0544839,15.606705 C18.6131541,15.1653707 18.6131541,14.4498264 19.0544839,14.0084921 L19.8626219,13.200346 C22.2993797,10.7637128 22.3732534,6.83638497 20.029854,4.30983433 L19.8626219,4.13717671 C17.4260134,1.70039414 13.4987254,1.62651965 10.9722004,3.96994288 L10.7995445,4.13717671 L9.9905026,4.94441889 C9.54725674,5.3727688 8.84249915,5.36684478 8.40651648,4.93110429 C7.97053381,4.4953638 7.96421112,3.79060252 8.39230584,3.34710989 L9.20134775,2.53896374 L9.20134775,2.53896374 Z" id="形状"></path>
                    <path d="M15.1972975,8.80254839 C15.6066005,9.21203953 15.6401677,9.86465576 15.2750378,10.3139806 L15.1972975,10.3998574 L10.3999953,15.1981122 C9.9743386,15.6221782 9.2912526,15.638961 8.84528454,15.2363101 C8.39931648,14.8336592 8.346451,14.1524083 8.72496218,13.685776 L8.80270252,13.5998992 L13.6000047,8.80254839 C14.0411969,8.36173424 14.7561052,8.36173424 15.1972975,8.80254839 L15.1972975,8.80254839 Z" id="路径"></path>
                </g>
            </g>
        </g>
    </g>
</svg>