
<svg viewBox="0 0 59.9123524 64.1757799" version="1.1" xmlns="http://www.w3.org/2000/svg" xmlns:xlink="http://www.w3.org/1999/xlink">
  <g fill="currentColor" fill-rule="nonzero">
    <path d="M54.1154832,0.140512283 C55.5373342,1.56234092 46.0076776,13.3971991 32.8304684,26.5744682 C19.6532294,39.7516774 7.81834116,49.281334 6.39651282,47.859483 C5.58954211,47.0524824 8.3102815,42.8911795 13.2234149,37.0341255 C12.6926395,36.326875 12.2084692,35.5885745 11.7728839,34.824924 C9.97466765,31.6713218 9.00506698,28.0774693 9.00506698,24.3837167 C9.00506698,18.7935129 11.2257585,13.4323291 15.1785763,9.4795264 C19.131424,5.52669366 24.4925627,3.30603212 30.0827665,3.30603212 C33.7765191,3.30603212 37.3703716,4.2756178 40.5239738,6.07386404 C41.2681243,6.49815433 41.9876748,6.96859966 42.6784253,7.48332502 C48.8563295,2.24608639 53.2807326,-0.694278646 54.1154832,0.140512283 Z M20.51387,28.8379698 C22.7323115,26.4606182 25.1390631,23.9680664 27.6815649,21.4255647 C30.0173665,19.0899131 32.3108681,16.8687115 34.5116696,14.8029551 C33.1363187,14.1672096 31.6270176,13.8288244 30.0827665,13.8288244 C27.2834646,13.8288244 24.5987627,14.9408352 22.6193614,16.9203116 C20.639915,18.8997129 19.5278743,21.5842648 19.5278743,24.3837167 C19.5278743,25.9374178 19.8704745,27.4558689 20.51387,28.8379698 Z M18.3574535,41.8972789 C18.4589285,41.9650789 18.5609586,42.032279 18.6635137,42.098279 C22.042161,44.2761305 26.0021637,45.4605313 30.0841165,45.4605313 C35.6743204,45.4605313 41.0354741,43.2397798 44.9882769,39.286977 C48.9410796,35.3341743 51.1619811,29.9730206 51.1619811,24.3828167 C51.1619811,20.3007139 49.9777303,16.3408612 47.7998788,12.9621988 C47.7533788,12.8905138 47.7070287,12.8191137 47.6596287,12.7479687 C46.7486781,13.9303445 45.7564274,15.1651603 44.6911267,16.4404612 C46.0046776,18.8563629 46.7107281,21.5832148 46.7107281,24.3828167 C46.7107281,28.7925198 44.9590268,33.0213227 41.8409747,36.1393749 C38.7227725,39.257577 34.4938196,41.0092782 30.0841165,41.0092782 C27.2579646,41.0092782 24.5060627,40.2895777 22.073211,38.9521768 C20.7862251,40.0141776 19.5434593,40.9986282 18.3574535,41.8972789 Z M23.586412,37.6851259 C25.5911634,38.6641766 27.810715,39.187227 30.0841165,39.187227 C34.0105193,39.187227 37.7759719,37.6275259 40.5523238,34.851174 C43.3286757,32.0748221 44.8885268,28.3092194 44.8885268,24.3828167 C44.8885268,22.1322152 44.3761264,19.9345637 43.4158258,17.9455623 C42.364625,19.1695631 41.2517743,20.425214 40.0846235,21.7029149 C40.3169736,22.5696155 40.4375737,23.4699161 40.4375737,24.3828167 C40.4375737,27.1287186 39.346623,29.7619705 37.4050216,31.7035718 C35.4634203,33.6451731 32.8300184,34.7361239 30.0841165,34.7361239 C29.1563659,34.7361239 28.2413653,34.6116238 27.3614647,34.3717736 C26.0758138,35.5354745 24.8140129,36.6420252 23.586412,37.6851259 Z"></path>
    <path d="M19.399222,64.1757799 L19.399222,52.1757799 L21.2663786,52.1757799 L21.2663786,55.6622731 L23.9953188,55.6622731 C25.6656836,55.6622731 26.5008244,56.5163379 26.5008244,58.2244674 L26.5008244,61.6135856 C26.5008244,63.3217151 25.6656836,64.1757799 23.9953188,64.1757799 L19.399222,64.1757799 Z M21.2663786,62.521683 L23.8996204,62.521683 C24.3889854,62.521683 24.6336679,62.2730996 24.6336679,61.7757666 L24.6336679,58.0622864 C24.6336679,57.5649534 24.3889854,57.316287 23.8996204,57.316287 L21.2663786,57.316287 L21.2663786,62.521683 Z M0,52.9865936 L0,64.1757799 L1.94700206,64.1757799 L1.94700206,60.413579 L5.2983555,60.413579 C7.03246386,60.413579 7.89955954,59.5379343 7.89955954,57.7865621 L7.89955954,55.6298203 C7.89955954,53.8676581 7.03246386,52.9865936 5.2983555,52.9865936 L0,52.9865936 Z M5.25046479,58.613652 L1.94700206,58.613652 L1.94700206,54.7866285 L5.25046479,54.7866285 C5.71858192,54.7866285 5.95264049,55.0190271 5.95264049,55.4839072 L5.95264049,57.9001054 C5.95264049,58.3757755 5.71858192,58.613652 5.25046479,58.613652 Z M9.90665323,55.6622731 L9.90665323,61.6135856 C9.90665323,63.3217151 10.7471061,64.1757799 12.4280948,64.1757799 L17.0082557,64.1757799 L17.0082557,55.6622731 L15.1410991,55.6622731 L15.1410991,62.521683 L12.5079403,62.521683 C12.0184923,62.521683 11.7738098,62.2730996 11.7738098,61.7757666 L11.7738098,55.6622731 L9.90665323,55.6622731 Z M28.7018049,52.1757799 L28.7018049,64.1757799 L30.5689615,64.1757799 L30.5689615,52.1757799 L28.7018049,52.1757799 Z M32.926147,54.1866252 L32.926147,52.2568621 L34.889085,52.2568621 L34.889085,54.1866252 L32.926147,54.1866252 Z M32.9740377,64.1757799 L32.9740377,55.6622731 L34.8411943,55.6622731 L34.8411943,64.1757799 L32.9740377,64.1757799 Z M37.1010214,58.2244674 L37.1010214,61.6135856 C37.1010214,63.3217151 37.9414743,64.1757799 39.622463,64.1757799 L43.4845123,64.1757799 L43.4845123,63.5433238 L43.4845123,62.521683 L39.7023085,62.521683 C39.2128605,62.521683 38.968178,62.2730996 38.968178,61.7757666 L38.968178,58.0622864 C38.968178,57.5649534 39.2128605,57.316287 39.7023085,57.316287 L43.4845123,57.316287 L43.4845123,56.2947292 L43.4845123,55.6622731 L39.622463,55.6622731 C37.9414743,55.6622731 37.1010214,56.5163379 37.1010214,58.2244674 Z M49.1987781,52.2329001 L45.3397169,64.1186762 L45.8399548,64.1186762 L47.5620282,64.1186762 L48.3804032,61.5003743 L53.2400233,61.5003743 L54.0409684,64.1186762 L55.7972377,64.1186762 L56.231325,64.1186762 L52.4382483,52.2329001 L49.1987781,52.2329001 Z M52.6772868,59.588315 L48.9605696,59.588315 L50.6479492,54.1449594 L50.9724773,54.1449594 L52.6772868,59.588315 Z M57.8315552,52.2329001 L57.8315552,64.1186762 L59.9123524,64.1186762 L59.9123524,52.2329001 L57.8315552,52.2329001 Z"></path>
  </g>
</svg>