<?xml version="1.0" encoding="UTF-8"?>
<svg width="80px" height="80px" viewBox="0 0 80 80" version="1.1" xmlns="http://www.w3.org/2000/svg" xmlns:xlink="http://www.w3.org/1999/xlink">
    <g id="页面-1" stroke="none" stroke-width="1" fill="none" fill-rule="evenodd">
        <g id="插件" transform="translate(-278, -188)">
            <g id="对号" transform="translate(278, 188)">
                <circle id="椭圆形备份-2" fill="#54D8A5" opacity="0.157628" cx="40" cy="40" r="40"></circle>
                <circle id="椭圆形" fill="#54D8A5" cx="40" cy="40" r="29.0909091"></circle>
                <g transform="translate(24.5455, 29.0909)" fill="#FFFFFF" fill-rule="nonzero" id="路径">
                    <path d="M11.8885288,20.9090909 C11.2791386,20.9090909 10.672157,20.6817418 10.2072862,20.2293872 L0.695499708,10.9361975 C-0.231833236,10.0291447 -0.231833236,8.55723472 0.695499708,7.6501819 C1.62524131,6.74312908 3.13065193,6.74312908 4.05798488,7.6501819 L11.8885288,15.3003638 L26.851106,0.682047467 C27.778439,-0.227349156 29.2838496,-0.227349156 30.2135912,0.682047467 C31.1409241,1.58910028 31.1409241,3.05866648 30.2135912,3.96571929 L13.5697714,20.2293872 C13.1049006,20.6817418 12.4955103,20.9090909 11.8885288,20.9090909 Z"></path>
                </g>
            </g>
        </g>
    </g>
</svg>