<svg width="20" height="20" viewBox="0 0 20 20" fill="none" xmlns="http://www.w3.org/2000/svg">
<g id="&#233;&#148;&#153;&#232;&#175;&#175;">
<path id="&#230;&#164;&#173;&#229;&#156;&#134;&#229;&#189;&#162;" d="M10 20C15.5228 20 20 15.5228 20 10C20 4.47715 15.5228 0 10 0C4.47715 0 0 4.47715 0 10C0 15.5228 4.47715 20 10 20Z" fill="#C83C3C"/>
<path id="&#232;&#183;&#175;&#229;&#190;&#132;" d="M13.2098 12.137C13.5224 12.4558 13.5224 12.9733 13.2098 13.2929C12.898 13.6116 12.3928 13.6116 12.081 13.2929L9.45231 10.6576L6.81713 8.02899C6.51164 7.73018 6.49891 7.25379 6.77891 6.94015L6.81709 6.90019C7.13673 6.58762 7.65421 6.58762 7.97298 6.90023L13.2098 12.137Z" fill="white"/>
<path id="&#232;&#183;&#175;&#229;&#190;&#132;&#229;&#164;&#135;&#228;&#187;&#189;" d="M7.97334 13.2776C7.65457 13.5902 7.13709 13.5902 6.81742 13.2777C6.49872 12.9658 6.49872 12.4607 6.81749 12.1489L9.45276 9.52018L12.0814 6.885C12.3802 6.57951 12.8566 6.56678 13.1702 6.84678L13.2102 6.88496C13.5227 7.2046 13.5227 7.72208 13.2101 8.04085L7.97334 13.2776Z" fill="white"/>
</g>
</svg>
