<?xml version="1.0" encoding="UTF-8"?>
<svg width="80px" height="80px" viewBox="0 0 80 80" version="1.1" xmlns="http://www.w3.org/2000/svg" xmlns:xlink="http://www.w3.org/1999/xlink">
    <g id="页面-1" stroke="none" stroke-width="1" fill="none" fill-rule="evenodd">
        <g id="插件" transform="translate(-278, -308)">
            <g id="错误" transform="translate(278, 308)">
                <circle id="椭圆形备份-2" fill="#C83C3C" opacity="0.157628" cx="40" cy="40" r="40"></circle>
                <circle id="椭圆形" fill="#C83C3C" cx="40.0909091" cy="40.0909091" r="29.0909091"></circle>
                <path d="M50.9222987,38 C52.2210626,38.0126829 53.2855486,39.077169 53.3002251,40.3776361 C53.3142749,41.6747427 52.2751347,42.7138829 50.9780281,42.6995427 L40.1498563,42.686 L29.3220533,42.6995427 C28.0789928,42.7132854 27.0728493,41.7595087 27.0036544,40.5383733 L27,40.3776361 C27.0145327,39.077169 28.0790188,38.0126829 29.3777827,38 L50.9222987,38 Z" id="路径" fill="#FFFFFF" fill-rule="nonzero" transform="translate(40.1501, 40.3498) rotate(-315) translate(-40.1501, -40.3498)"></path>
                <path d="M50.9222987,38 C52.2210626,38.0126829 53.2855486,39.077169 53.3002251,40.3776361 C53.3142749,41.6747427 52.2751347,42.7138829 50.9780281,42.6995427 L40.1498563,42.686 L29.3220533,42.6995427 C28.0789928,42.7132854 27.0728493,41.7595087 27.0036544,40.5383733 L27,40.3776361 C27.0145327,39.077169 28.0790188,38.0126829 29.3777827,38 L50.9222987,38 Z" id="路径备份" fill="#FFFFFF" fill-rule="nonzero" transform="translate(40.1501, 40.3498) rotate(-225) translate(-40.1501, -40.3498)"></path>
            </g>
        </g>
    </g>
</svg>