<svg viewBox="0 0 24 24">
  <g transform="translate(2, 2)" fill="none">
    <path d="M18.6666667,16 L9.33333333,16 L4,20 L4,16 L1.33333333,16 C0.979712,16 0.640565333,15.85952 0.3905248,15.6094933 C0.140475733,15.3594667 0,15.0202667 0,14.6666667 L0,1.33333333 C0,0.979712 0.140475733,0.640565333 0.3905248,0.3905248 C0.640565333,0.140475733 0.979712,0 1.33333333,0 L18.6666667,0 C19.0202667,0 19.3594667,0.140475733 19.6094933,0.3905248 C19.85952,0.640565333 20,0.979712 20,1.33333333 L20,14.6666667 C20,15.0202667 19.85952,15.3594667 19.6094933,15.6094933 C19.3594667,15.85952 19.0202667,16 18.6666667,16 Z" stroke="currentColor" stroke-width="2" stroke-linecap="round" stroke-linejoin="round" fill-rule="nonzero"></path>
    <path d="M16.1856,2.03642667 C16.55424,2.40504533 14.0836267,5.473344 10.6673067,8.889664 C7.25095467,12.3060267 4.182656,14.77664 3.81403733,14.408 C3.60482133,14.1988267 4.31019733,13.1198933 5.583968,11.6014933 C5.44635733,11.4180267 5.320832,11.2266667 5.207904,11.0286933 C4.74170667,10.2110933 4.49032533,9.279328 4.49032533,8.32168533 C4.49032533,6.87239467 5.06605867,5.48245333 6.09085867,4.45765333 C7.11566933,3.43284267 8.50561067,2.85712 9.954912,2.85712 C10.9125333,2.85712 11.8442667,3.10849067 12.6618667,3.57469867 C12.8548267,3.684704 13.0413867,3.80667733 13.22048,3.94011733 C14.8221867,2.58231467 15.9691733,1.82 16.1856,2.03642667 Z M7.47408,9.47652267 C8.049248,8.86014933 8.673216,8.21394133 9.332384,7.55476267 C9.93794133,6.94922667 10.5325867,6.37338667 11.1031467,5.83780267 C10.74656,5.67298133 10.3553067,5.585248 9.954912,5.585248 C9.229152,5.585248 8.53313067,5.87354667 8.01994667,6.38673067 C7.50676267,6.899904 7.21845333,7.595936 7.21845333,8.32168533 C7.21845333,8.724512 7.30728533,9.11819733 7.47408,9.47652267 Z M6.91501867,12.8622933 C6.94132267,12.8798933 6.967776,12.89728 6.994368,12.9143467 C7.87031467,13.47904 8.89697067,13.7860267 9.95527467,13.7860267 C11.4045867,13.7860267 12.7944533,13.2103467 13.8193067,12.1854933 C14.8440533,11.1607467 15.41984,9.77076267 15.41984,8.321472 C15.41984,7.26315733 15.1128533,6.236512 14.5482667,5.36056533 C14.5362133,5.341984 14.52416,5.32347733 14.5118933,5.305024 C14.2757333,5.61157333 14.0184533,5.93169067 13.7422933,6.262336 C14.0827733,6.88868267 14.2658133,7.59563733 14.2658133,8.321472 C14.2658133,9.464704 13.8117333,10.5610667 13.0033067,11.3694933 C12.19488,12.1778133 11.09856,12.632 9.95527467,12.632 C9.22257067,12.632 8.50909867,12.44544 7.87835733,12.0987733 C7.54469333,12.37408 7.222496,12.6293333 6.91501867,12.8622933 Z M8.270656,11.77024 C8.790432,12.024 9.36586667,12.15968 9.95527467,12.15968 C10.9732267,12.15968 11.94944,11.7553067 12.6692267,11.03552 C13.3890133,10.3157333 13.7933867,9.33941333 13.7933867,8.321472 C13.7933867,7.737984 13.6605867,7.16820267 13.4116267,6.65256533 C13.1390933,6.96989867 12.85056,7.29543467 12.5479467,7.62667733 C12.6082133,7.85137067 12.6394667,8.08481067 12.6394667,8.321472 C12.6394667,9.03335467 12.3566933,9.71608533 11.8532267,10.2194133 C11.3498667,10.7227733 10.6672,11.0056533 9.95527467,11.0056533 C9.71472,11.0056533 9.477504,10.9733333 9.24939733,10.9111467 C8.91605333,11.2129067 8.588928,11.49984 8.270656,11.77024 Z" fill="currentColor"></path>
  </g>
</svg>
