

<svg viewBox="0 0 10 10">
  <g stroke="none" stroke-width="2" fill="none" fill-rule="evenodd">
    <path d="M5.55541408,0.556295299 L5.55541408,2.03752439 C5.55541408,2.46511821 5.09250912,2.73236312 4.72220494,2.51857115 C4.55035926,2.41934239 4.44450153,2.23597201 4.44450153,2.03752439 L4.44450153,0.556295299 C4.44450153,0.128696529 4.90740649,-0.138550353 5.27771067,0.0752455697 C5.44955635,0.174471357 5.55541408,0.357842734 5.55541408,0.556295299 Z M9.44365743,4.44451919 L7.96244071,4.44451919 C7.53485464,4.44451919 7.26763808,4.90740204 7.48143112,5.27771426 C7.58066037,5.44957886 7.76398221,5.55544595 7.96244071,5.55544595 L9.44365743,5.55544595 C9.87124351,5.55544595 10.138559,5.09256309 9.92476596,4.72225088 C9.82553671,4.55038628 9.64211594,4.44451919 9.44365743,4.44451919 Z M7.48756493,6.702008 C7.18463375,6.39912781 6.66751381,6.5377117 6.55661052,6.95144515 C6.50516565,7.1434622 6.56007316,7.34835028 6.70065618,7.48891281 L7.74815302,8.53642419 C8.05098526,8.83930438 8.56820414,8.70073039 8.67900849,8.28698704 C8.7305523,8.09497 8.67564478,7.89008191 8.53506176,7.74951938 L7.48756493,6.702008 Z M5.00000727,7.40698726 C4.69321773,7.40698726 4.44450153,7.65566263 4.44450153,7.96244075 L4.44450153,9.44367973 C4.44450153,9.87124387 4.90740649,10.138558 5.27771067,9.92476606 C5.44955635,9.82553731 5.55541408,9.64211745 5.55541408,9.44367973 L5.55541408,7.96244075 C5.55541408,7.65566263 5.30679682,7.40698726 5.00000727,7.40698726 Z M2.51244962,6.702008 L1.46485385,7.74951938 C1.1620216,8.05239958 1.30062597,8.56957629 1.7143615,8.68043944 C1.90638939,8.73188406 2.11127851,8.67698672 2.2517626,8.53642419 L3.29935836,7.48891281 C3.60219061,7.18603262 3.46358624,6.6688559 3.04985071,6.55799275 C2.85782282,6.50654813 2.6529337,6.56144548 2.51244962,6.702008 Z M2.59298063,4.99998257 C2.59298063,4.69322424 2.34426444,4.44453897 2.0374749,4.44451919 L0.556258176,4.44451919 C0.128672104,4.44451919 -0.138544457,4.90740204 0.0752485786,5.27771426 C0.174477831,5.44957886 0.357799671,5.55544595 0.556258176,5.55544595 L2.0374749,5.55544595 C2.34426444,5.55542616 2.59298063,5.30675079 2.59298063,4.99998257 Z M2.25037754,1.46493588 C1.9475453,1.16205569 1.43032642,1.30062969 1.31952207,1.71437303 C1.26807719,1.90639008 1.3229847,2.11126827 1.46346879,2.25184069 L2.51244962,3.29795713 C2.81528186,3.60083732 3.33250074,3.46225344 3.44330509,3.04851998 C3.49474996,2.85650294 3.43984245,2.65161485 3.29935836,2.51105232 L2.25037754,1.46493588 Z" fill="currentColor" fill-rule="nonzero"></path>
  </g>
</svg>