<svg viewBox="0 0 684 684" fill="none">
<g opacity="0.6">
<g filter="url(#filter0_ii_304_13451)">
<path fill-rule="evenodd" clip-rule="evenodd" d="M681.998 2.0023C702.259 22.2633 566.461 190.91 378.686 378.686C190.91 566.461 22.2633 702.259 2.0023 681.998C-9.49641 670.499 29.2695 611.207 99.2747 527.749C60.4814 476.053 39.1596 412.863 39.1596 347.475C39.1596 267.815 70.8042 191.418 127.132 135.091C183.46 78.763 259.856 47.1185 339.516 47.1185C404.574 47.1185 467.456 68.2255 519.006 106.647C607.05 32.0103 670.101 -9.89398 681.998 2.0023ZM305.314 305.314C269.079 341.55 234.779 377.073 203.162 410.955C193.992 391.258 189.109 369.618 189.109 347.475C189.109 307.584 204.956 269.328 233.162 241.121C261.369 212.914 299.626 197.068 339.516 197.068C361.523 197.068 383.033 201.891 402.632 210.952C371.273 240.387 338.594 272.034 305.314 305.314Z" fill="url(#paint0_linear_304_13451)" fill-opacity="0.4"/>
<path d="M339.519 647.82C279.587 647.82 221.501 629.907 172.419 597.048C187.56 585.579 203.351 573.124 219.662 559.772C255.918 580.24 297.15 591.268 339.519 591.268C404.18 591.268 466.193 565.582 511.915 519.859C557.637 474.137 583.324 412.125 583.324 347.464C583.324 305.489 572.5 264.631 552.397 228.62C565.798 212.455 578.353 196.768 589.979 181.679C622.281 230.482 639.875 288.066 639.875 347.464C639.875 427.123 608.231 503.52 551.903 559.847C495.575 616.175 419.179 647.82 339.519 647.82Z" fill="url(#paint1_linear_304_13451)" fill-opacity="0.4"/>
<path d="M339.519 551.548C309.202 551.548 279.579 544.802 252.66 532.142C268.344 518.723 284.401 504.587 300.731 489.807C313.266 493.223 326.301 494.997 339.519 494.997C378.647 494.997 416.173 479.453 443.841 451.785C471.509 424.117 487.052 386.592 487.052 347.464C487.052 334.46 485.336 321.634 482.028 309.288C496.856 293.058 511.066 277.077 524.59 261.443C536.997 288.138 543.604 317.46 543.604 347.464C543.604 401.59 522.102 453.5 483.829 491.773C445.556 530.047 393.646 551.548 339.519 551.548Z" fill="url(#paint2_linear_304_13451)" fill-opacity="0.4"/>
</g>
<path d="M100.041 528.392L100.551 527.784L100.075 527.149C61.4104 475.625 40.1596 412.645 40.1596 347.475C40.1596 268.08 71.6989 191.938 127.839 135.798C183.979 79.6577 260.122 48.1185 339.516 48.1185C404.357 48.1185 467.03 69.1553 518.409 107.449L519.046 107.925L519.653 107.41C563.662 70.1023 601.398 40.9985 629.601 22.7139C643.71 13.5671 655.388 7.15693 664.249 3.7727C668.684 2.07918 672.355 1.16623 675.24 1.02068C678.13 0.874885 680.084 1.50257 681.291 2.70941C682.319 3.73798 682.926 5.3043 682.994 7.53886C683.062 9.77957 682.582 12.6036 681.528 16.0077C679.422 22.8129 675.093 31.7168 668.699 42.4904C655.919 64.0235 635.011 92.8287 607.577 126.899C552.717 195.03 471.849 284.108 377.979 377.979C284.108 471.849 195.03 552.717 126.899 607.577C92.8287 635.011 64.0235 655.919 42.4904 668.699C31.7168 675.093 22.8129 679.422 16.0077 681.528C12.6036 682.582 9.77957 683.062 7.53886 682.994C5.3043 682.926 3.73798 682.319 2.70941 681.291C1.54282 680.124 0.91742 678.261 1.00872 675.525C1.09997 672.791 1.90624 669.318 3.44442 665.126C6.5184 656.748 12.4283 645.722 20.9179 632.395C37.8882 605.757 65.0488 570.108 100.041 528.392ZM202.255 411.377L202.881 412.722L203.893 411.637C235.502 377.764 269.794 342.249 306.021 306.021C339.294 272.749 371.966 241.109 403.316 211.681L404.397 210.666L403.052 210.044C383.322 200.923 361.669 196.068 339.516 196.068C299.36 196.068 260.849 212.02 232.455 240.414C204.061 268.808 188.109 307.319 188.109 347.475C188.109 369.765 193.025 391.549 202.255 411.377ZM339.519 646.82C280.261 646.82 222.814 629.25 174.144 596.995C188.79 585.878 204.036 573.845 219.766 560.979C256.027 581.315 297.209 592.268 339.519 592.268C404.445 592.268 466.712 566.476 512.622 520.567C558.532 474.657 584.324 412.39 584.324 347.464C584.324 305.549 573.575 264.744 553.604 228.731C566.519 213.14 578.648 197.993 589.915 183.4C621.619 231.789 638.875 288.737 638.875 347.464C638.875 426.858 607.336 503 551.196 559.14C495.056 615.28 418.913 646.82 339.519 646.82ZM339.519 550.548C309.877 550.548 280.902 544.068 254.49 531.891C269.676 518.879 285.209 505.198 300.997 490.915C313.454 494.26 326.397 495.997 339.519 495.997C378.913 495.997 416.693 480.348 444.548 452.492C472.403 424.637 488.052 386.857 488.052 347.464C488.052 334.558 486.373 321.826 483.135 309.559C497.465 293.867 511.218 278.408 524.33 263.271C536.259 289.458 542.604 318.133 542.604 347.464C542.604 401.325 521.208 452.98 483.122 491.066C445.036 529.152 393.381 550.548 339.519 550.548Z" stroke="white" stroke-opacity="0.11" stroke-width="2"/>
</g>
<defs>
<filter id="filter0_ii_304_13451" x="0" y="0" width="684" height="688.038" filterUnits="userSpaceOnUse" color-interpolation-filters="sRGB">
<feFlood flood-opacity="0" result="BackgroundImageFix"/>
<feBlend mode="normal" in="SourceGraphic" in2="BackgroundImageFix" result="shape"/>
<feColorMatrix in="SourceAlpha" type="matrix" values="0 0 0 0 0 0 0 0 0 0 0 0 0 0 0 0 0 0 127 0" result="hardAlpha"/>
<feOffset dy="4.03792"/>
<feGaussianBlur stdDeviation="2.01896"/>
<feComposite in2="hardAlpha" operator="arithmetic" k2="-1" k3="1"/>
<feColorMatrix type="matrix" values="0 0 0 0 1 0 0 0 0 1 0 0 0 0 1 0 0 0 0.4 0"/>
<feBlend mode="normal" in2="shape" result="effect1_innerShadow_304_13451"/>
<feColorMatrix in="SourceAlpha" type="matrix" values="0 0 0 0 0 0 0 0 0 0 0 0 0 0 0 0 0 0 127 0" result="hardAlpha"/>
<feOffset/>
<feGaussianBlur stdDeviation="34.3223"/>
<feComposite in2="hardAlpha" operator="arithmetic" k2="-1" k3="1"/>
<feColorMatrix type="matrix" values="0 0 0 0 1 0 0 0 0 1 0 0 0 0 1 0 0 0 0.31 0"/>
<feBlend mode="normal" in2="effect1_innerShadow_304_13451" result="effect2_innerShadow_304_13451"/>
</filter>
<linearGradient id="paint0_linear_304_13451" x1="342" y1="0" x2="342" y2="684" gradientUnits="userSpaceOnUse">
<stop stop-color="#F0F0FF"/>
<stop offset="0.535" stop-color="#B2B1EB"/>
<stop offset="1" stop-color="#8B89FC" stop-opacity="0.52"/>
</linearGradient>
<linearGradient id="paint1_linear_304_13451" x1="342" y1="0" x2="342" y2="684" gradientUnits="userSpaceOnUse">
<stop stop-color="#F0F0FF"/>
<stop offset="0.535" stop-color="#B2B1EB"/>
<stop offset="1" stop-color="#8B89FC" stop-opacity="0.52"/>
</linearGradient>
<linearGradient id="paint2_linear_304_13451" x1="342" y1="0" x2="342" y2="684" gradientUnits="userSpaceOnUse">
<stop stop-color="#F0F0FF"/>
<stop offset="0.535" stop-color="#B2B1EB"/>
<stop offset="1" stop-color="#8B89FC" stop-opacity="0.52"/>
</linearGradient>
</defs>
</svg>
