<svg
  width="18"
  height="18"
  viewBox="0 0 18 18"
  fill="none"
  xmlns="http://www.w3.org/2000/svg">
  <g
    id="Group 35604"
    opacity="0.5"
    filter="url(#filter0_d_2_2485)">
    <path
      id="Vector"
      fill-rule="evenodd"
      clip-rule="evenodd"
      d="M13.9707 0.0292735C14.2669 0.325488 12.2816 2.79109 9.53635 5.53635C6.79109 8.28163 4.32549 10.267 4.02927 9.97076C3.86115 9.80263 4.42798 8.93568 5.45154 7.71547C5.34097 7.56812 5.2401 7.4143 5.14935 7.25522C4.77472 6.59821 4.57272 5.84948 4.57272 5.07994C4.57272 3.91533 5.03537 2.79841 5.85887 1.97491C6.68238 1.1514 7.79929 0.688757 8.96391 0.688757C9.73345 0.688757 10.4822 0.890756 11.1392 1.26539C11.2942 1.35379 11.4441 1.45179 11.588 1.55903C12.8751 0.467934 13.7968 -0.144642 13.9707 0.0292735ZM6.97039 6.00794C7.43257 5.51264 7.93397 4.99336 8.46366 4.46366C8.95027 3.97707 9.42809 3.51434 9.88659 3.08396C9.60007 2.95151 9.28562 2.88101 8.96391 2.88101C8.38071 2.88101 7.82141 3.11268 7.40903 3.52506C6.99665 3.93744 6.76497 4.49674 6.76497 5.07994C6.76497 5.40364 6.83635 5.71999 6.97039 6.00794ZM6.52114 8.72863C6.54227 8.74276 6.56353 8.75676 6.5849 8.7705C7.28878 9.22423 8.11378 9.47096 8.9642 9.47096C10.1288 9.47096 11.2457 9.00832 12.0692 8.18482C12.8927 7.36132 13.3554 6.24438 13.3554 5.07977C13.3554 4.22934 13.1087 3.40435 12.655 2.70046C12.6453 2.68553 12.6356 2.67066 12.6258 2.65583C12.436 2.90216 12.2292 3.1594 12.0073 3.4251C12.281 3.92842 12.4281 4.49651 12.4281 5.07977C12.4281 5.99844 12.0631 6.87947 11.4135 7.52907C10.7639 8.17867 9.88287 8.54361 8.9642 8.54361C8.37542 8.54361 7.80209 8.39369 7.29525 8.11507C7.02713 8.33631 6.76822 8.54142 6.52114 8.72863ZM7.61049 7.85107C8.02816 8.05505 8.49057 8.16404 8.9642 8.16404C9.78219 8.16404 10.5667 7.83908 11.1451 7.26068C11.7235 6.68227 12.0484 5.89776 12.0484 5.07977C12.0484 4.61089 11.9417 4.15303 11.7416 3.73868C11.5226 3.99368 11.2908 4.25527 11.0476 4.52145C11.096 4.70201 11.1211 4.88959 11.1211 5.07977C11.1211 5.65182 10.8939 6.20044 10.4894 6.60493C10.0849 7.00943 9.53625 7.2367 8.9642 7.2367C8.7709 7.2367 8.58027 7.21077 8.39698 7.16079C8.12911 7.40325 7.86624 7.63379 7.61049 7.85107Z"
      fill="white"/>
  </g>
  <defs>
  <filter
    id="filter0_d_2_2485"
    x="0"
    y="0"
    width="18"
    height="18"
    filterUnits="userSpaceOnUse"
    color-interpolation-filters="sRGB">
  <feFlood flood-opacity="0" result="BackgroundImageFix"/>
  <feColorMatrix in="SourceAlpha" type="matrix" values="0 0 0 0 0 0 0 0 0 0 0 0 0 0 0 0 0 0 127 0" result="hardAlpha"/>
  <feOffset dy="4"/>
  <feGaussianBlur stdDeviation="2"/>
  <feComposite in2="hardAlpha" operator="out"/>
  <feColorMatrix type="matrix" values="0 0 0 0 0 0 0 0 0 0 0 0 0 0 0 0 0 0 0.25 0"/>
  <feBlend mode="normal" in2="BackgroundImageFix" result="effect1_dropShadow_2_2485"/>
  <feBlend mode="normal" in="SourceGraphic" in2="effect1_dropShadow_2_2485" result="shape"/>
  </filter>
  </defs>
</svg>
