<svg width="120" height="119" viewBox="0 0 120 119" fill="none" xmlns="http://www.w3.org/2000/svg">
  <defs>
    <linearGradient x1="0%" y1="0%" x2="100%" y2="100%" gradientUnits="userSpaceOnUse" id="linearGradient">
      <stop stop-color="#F6F6FD" offset="0%"></stop>
      <stop stop-color="#F6F6FD" stop-opacity="0.58" offset="100%"></stop>
    </linearGradient>
  </defs>
  <path fill-rule="evenodd" clip-rule="evenodd" d="M119.006 0.563316C122.522 4.07958 98.9549 33.3479 66.3669 65.936C33.7787 98.5243 4.51026 122.092 0.993981 118.575C-1.00171 116.58 5.72685 106.288 17.8773 91.8036C16.5647 90.0545 15.3673 88.2286 14.2901 86.3401C9.84299 78.541 7.44511 69.6531 7.44511 60.5181C7.44511 46.6934 12.937 33.4348 22.7126 23.6593C32.4882 13.8837 45.7467 8.39183 59.5716 8.39183C68.7066 8.39183 77.5943 10.7897 85.3934 15.2369C87.2335 16.2862 89.0132 17.4496 90.7213 18.7226C106 5.77051 116.942 -1.50117 119.006 0.563316ZM35.9071 71.5341C41.3935 65.6546 47.3455 59.4903 53.6333 53.2025C59.4097 47.4263 65.0817 41.9333 70.5245 36.8245C67.1233 35.2522 63.3906 34.4154 59.5716 34.4154C52.6486 34.4154 46.0093 37.1654 41.114 42.0606C36.2188 46.9559 33.4687 53.5952 33.4687 60.5181C33.4687 64.3607 34.3159 68.116 35.9071 71.5341ZM30.5741 103.831C30.8251 103.998 31.0774 104.164 31.331 104.328C39.6866 109.714 49.4799 112.642 59.5751 112.642C73.3998 112.642 86.6581 107.151 96.4337 97.3751C106.209 87.5996 111.702 74.3408 111.702 60.5161C111.702 50.4209 108.773 40.6277 103.387 32.2721C103.272 32.0948 103.157 31.9183 103.04 31.7423C100.787 34.6664 98.3334 37.72 95.6989 40.874C98.9474 46.8488 100.694 53.5924 100.694 60.5161C100.694 71.4213 96.3614 81.8797 88.6502 89.5909C80.939 97.3021 70.4804 101.634 59.5751 101.634C52.5858 101.634 45.78 99.8546 39.7634 96.5471C36.5806 99.1734 33.5072 101.608 30.5741 103.831ZM43.5056 93.4133C48.4636 95.8347 53.9527 97.1284 59.5751 97.1284C69.2852 97.1284 78.5974 93.271 85.4635 86.4049C92.3296 79.5389 96.187 70.2262 96.187 60.5161C96.187 54.9502 94.9201 49.5151 92.5449 44.5964C89.9455 47.6235 87.1932 50.7288 84.3068 53.8885C84.8814 56.0318 85.1795 58.2586 85.1795 60.5161C85.1795 67.3067 82.4817 73.8192 77.68 78.6207C72.8782 83.4224 66.3657 86.1203 59.5751 86.1203C57.2804 86.1203 55.0176 85.8125 52.8417 85.2192C49.6619 88.0974 46.5415 90.834 43.5056 93.4133Z" fill="url(#linearGradient)"/>
</svg>

