<svg viewBox="0 0 20 20" fill="none" xmlns="http://www.w3.org/2000/svg">
  <path fill-rule="evenodd" clip-rule="evenodd" d="M19.9415 0.0585468C20.5339 0.650974 16.5632 5.58216 11.0727 11.0727C5.58218 16.5632 0.650976 20.5339 0.0585469 19.9415C-0.27769 19.6052 0.855951 17.8713 2.90309 15.4309C2.68193 15.1362 2.48019 14.8286 2.2987 14.5104C1.54945 13.1964 1.14545 11.6989 1.14545 10.1598C1.14545 7.83063 2.07073 5.5968 3.71774 3.9498C5.36475 2.30279 7.59858 1.37751 9.92781 1.37751C11.4669 1.37751 12.9643 1.78151 14.2783 2.53077C14.5883 2.70757 14.8882 2.90358 15.176 3.11805C17.7501 0.935866 19.5936 -0.289282 19.9415 0.0585468ZM5.94077 12.0158C6.86514 11.0252 7.86794 9.98668 8.92733 8.9273C9.90054 7.95411 10.8562 7.02865 11.7732 6.1679C11.2001 5.903 10.5712 5.762 9.92781 5.762C8.76142 5.762 7.64281 6.22534 6.81805 7.0501C5.9933 7.87485 5.52994 8.99346 5.52994 10.1598C5.52994 10.8073 5.6727 11.44 5.94077 12.0158ZM5.04227 17.4572C5.08455 17.4855 5.12706 17.5135 5.16979 17.541C6.57756 18.4484 8.22756 18.9419 9.9284 18.9419C12.2576 18.9419 14.4914 18.0166 16.1384 16.3696C17.7854 14.7226 18.7108 12.4887 18.7108 10.1595C18.7108 8.45865 18.2174 6.80868 17.3099 5.40091C17.2906 5.37104 17.2712 5.3413 17.2515 5.31165C16.872 5.80431 16.4585 6.31878 16.0146 6.85018C16.5619 7.85681 16.8561 8.993 16.8561 10.1595C16.8561 11.9968 16.1262 13.7589 14.827 15.0581C13.5278 16.3573 11.7657 17.0872 9.9284 17.0872C8.75084 17.0872 7.60419 16.7873 6.5905 16.2301C6.05426 16.6726 5.53644 17.0828 5.04227 17.4572ZM7.22098 15.7021C8.05633 16.1101 8.98113 16.328 9.9284 16.328C11.5644 16.328 13.1333 15.6781 14.2901 14.5213C15.4469 13.3645 16.0969 11.7955 16.0969 10.1595C16.0969 9.22176 15.8834 8.30603 15.4832 7.47733C15.0453 7.98733 14.5816 8.51052 14.0953 9.04287C14.1921 9.40399 14.2423 9.77915 14.2423 10.1595C14.2423 11.3036 13.7878 12.4008 12.9788 13.2098C12.1697 14.0188 11.0725 14.4733 9.9284 14.4733C9.54179 14.4733 9.16055 14.4215 8.79396 14.3215C8.25822 14.8065 7.73249 15.2675 7.22098 15.7021Z" fill="currentColor"/>
</svg>
