<?xml version="1.0" encoding="UTF-8"?>
<svg width="18px" height="18px" viewBox="0 0 18 18" version="1.1" xmlns="http://www.w3.org/2000/svg" xmlns:xlink="http://www.w3.org/1999/xlink">
    <g id="页面-1" stroke="none" stroke-width="1" fill="none" fill-rule="evenodd">
        <g id="插件" transform="translate(-1256, -464)" fill="currentColor" fill-rule="nonzero" stroke="currentColor" stroke-width="0.5">
            <g id="打开" transform="translate(1257, 465)">
                <path d="M0.535714275,0 C0.239285705,0 0,0.239285723 0,0.535714275 L0,15.4642857 C0,15.7607143 0.239285723,16 0.535714275,16 C0.832142828,16 1.07142857,15.7607143 1.07142857,15.4642857 L1.07142857,0.535714275 C1.07142857,0.241071415 0.832142846,0 0.535714275,0 L0.535714275,0 Z" id="路径"></path>
                <path d="M15.4642857,14.9285714 L0.535714275,14.9285714 C0.239285705,14.9285714 0,15.1678572 0,15.4642857 C0,15.7607143 0.239285723,16 0.535714275,16 L15.4642857,16 C15.7607143,16 16,15.7607143 16,15.4642857 C16,15.1696429 15.7607143,14.9285714 15.4642857,14.9285714 Z" id="路径"></path>
                <path d="M15.8357143,0.164285703 C15.6267857,-0.0446428771 15.2875,-0.0446428771 15.0785714,0.164285703 L5.73392856,9.50714286 C5.52499998,9.71607144 5.52499998,10.0553571 5.73392856,10.2642857 C5.94285714,10.4732143 6.28214285,10.4732143 6.49107143,10.2642857 L15.8357143,0.919642854 C16.0446429,0.712500002 16.0446429,0.373214283 15.8357143,0.164285703 Z" id="路径"></path>
                <path d="M15.4642857,0 L11.1785714,0 C10.8821429,0 10.6428571,0.239285723 10.6428571,0.535714275 C10.6428571,0.832142828 10.8821429,1.07142857 11.1785714,1.07142857 L15.4642857,1.07142857 C15.7607143,1.07142857 16,0.832142846 16,0.535714275 C16,0.241071415 15.7607143,0 15.4642857,0 Z" id="路径"></path>
                <path d="M4.82142857,0 L0.535714275,0 C0.239285705,0 0,0.239285723 0,0.535714275 C0,0.832142828 0.239285723,1.07142857 0.535714275,1.07142857 L4.82142857,1.07142857 C5.11785714,1.07142857 5.35714286,0.832142846 5.35714286,0.535714275 C5.35714286,0.241071415 5.11785714,0 4.82142857,0 Z" id="路径"></path>
                <path d="M15.4642857,0 C15.1678572,0 14.9285714,0.239285723 14.9285714,0.535714275 L14.9285714,4.82142857 C14.9285714,5.11785714 15.1678572,5.35714286 15.4642857,5.35714286 C15.7607143,5.35714286 16,5.11785714 16,4.82142857 L16,0.535714275 C16,0.241071415 15.7607143,0 15.4642857,0 Z" id="路径"></path>
                <path d="M15.4642857,10.6428571 C15.1678572,10.6428571 14.9285714,10.8821429 14.9285714,11.1785714 L14.9285714,15.4642857 C14.9285714,15.7607143 15.1678572,16 15.4642857,16 C15.7607143,16 16,15.7607143 16,15.4642857 L16,11.1785714 C16,10.8839286 15.7607143,10.6428571 15.4642857,10.6428571 Z" id="路径"></path>
            </g>
        </g>
    </g>
</svg>