<svg viewBox="0 0 130 26">
  <path fill-rule="evenodd" clip-rule="evenodd" d="M41.0967 25.767V0.922852H44.9624V8.14108H50.6122C54.0704 8.14108 55.7995 9.90927 55.7995 13.4456V20.4624C55.7995 23.9988 54.0704 25.767 50.6122 25.767H41.0967ZM44.9624 22.3425H50.414C51.4272 22.3425 51.9338 21.8277 51.9338 20.7982V13.1099C51.9338 12.0803 51.4272 11.5655 50.414 11.5655H44.9624V22.3425ZM0.933594 2.60151V25.767H4.96449V17.978H11.9029C15.4933 17.978 17.2884 16.1651 17.2884 12.5392V8.07394C17.2884 4.42565 15.4933 2.60151 11.9029 2.60151H0.933594ZM11.8038 14.2514H4.96449V6.32813H11.8038C12.773 6.32813 13.2576 6.80935 13.2576 7.77178V12.7742C13.2576 13.759 12.773 14.2514 11.8038 14.2514ZM21.4438 8.14108V20.4624C21.4438 23.9988 23.1839 25.767 26.6641 25.767H36.1466V8.14108H32.2809V22.3425H26.8293C25.8161 22.3425 25.3094 21.8277 25.3094 20.7982V8.14108H21.4438ZM60.3562 0.922852V25.767H64.2219V0.922852H60.3562ZM69.1021 5.08592V1.09072H73.1661V5.08592H69.1021ZM69.2013 25.767V8.14108H73.067V25.767H69.2013ZM77.7455 13.4456V20.4624C77.7455 23.9988 79.4856 25.767 82.9658 25.767H90.9615V24.4576V22.3425H83.131C82.1178 22.3425 81.6112 21.8277 81.6112 20.7982V13.1099C81.6112 12.0803 82.1178 11.5655 83.131 11.5655H90.9615V9.45044V8.14108H82.9658C79.4856 8.14108 77.7455 9.90927 77.7455 13.4456ZM102.791 1.04119L94.801 25.6488H95.8367H99.402L101.096 20.228H111.157L112.816 25.6488H116.452H117.35L109.498 1.04119H102.791ZM109.992 16.2694H102.297L105.791 4.99981H106.462L109.992 16.2694ZM120.664 1.04119V25.6488H124.971V1.04119H120.664Z" fill="currentColor"/>
</svg>
