
<svg viewBox="0 0 20 20">
  <g stroke="none" stroke-width="1" fill="none" fill-rule="evenodd">
    <path d="M0.869571715,17.3913714 L1.73913664,17.3913714 L1.73913664,20 L0.869571715,20 L0.869571715,17.3913714 Z M0,18.260869 L0.869564922,18.260869 L0.869564922,20 L0,20 L0,18.260869 Z M13.0434806,16.5218738 L14.7826105,16.5218738 L14.7826105,18.2609369 L13.9130455,18.2609369 L13.9130455,19.1304345 L13.0434806,19.1304345 L13.0434806,16.5218738 Z M12.1739157,17.3914393 L12.1739157,16.5218738 L13.0434806,16.5218738 L13.0434806,19.1304345 L11.3043508,19.1304345 L11.3043508,17.3913714 L12.1739157,17.3914393 Z M9.56522094,17.3913714 L11.3043508,17.3913714 L11.3043508,19.1304345 L9.56522094,19.1304345 L9.56522094,17.3913714 Z M7.82609109,17.3913714 L9.56522094,17.3913714 L9.56522094,19.1304345 L7.82609109,19.1304345 L7.82609109,17.3913714 Z M6.08696125,17.3913714 L7.82609109,17.3913714 L7.82609109,19.1304345 L6.08696125,19.1304345 L6.08696125,17.3913714 Z M6.08696125,18.260869 L5.21739633,18.260869 L5.21739633,19.1304345 L6.08696125,19.1304345 L6.08696125,18.260869 Z M1.73913664,16.5218738 L4.34782461,16.5218738 L4.34782461,17.3914393 L3.47826648,17.3913714 L3.47826648,18.2609369 L2.60870156,18.2609369 L2.60870156,19.1304345 L1.73913664,19.1304345 L1.73913664,16.5218738 Z M15.6521754,16.5218738 L14.7826105,16.5218738 L14.7826105,17.3914393 L15.6521754,17.3914393 L15.6521754,16.5218738 Z M15.6521754,14.7826749 L15.6521754,13.9131093 L16.5217403,13.9131093 L16.5217403,16.5217379 L14.7826105,16.5217379 L14.7826105,14.7826749 L15.6521754,14.7826749 Z M14.7826105,15.6521724 L13.9130455,15.6521724 L13.9130455,16.5217379 L14.7826105,16.5217379 L14.7826105,15.6521724 Z M9.56522094,14.7826749 L11.3043508,14.7826749 L11.3043508,16.5217379 L9.56522094,16.5217379 L9.56522094,14.7826749 Z M8.69565601,15.6522404 L8.69565601,14.7826749 L9.56522094,14.7826749 L9.56522094,16.5217379 L7.82609109,16.5217379 L7.82609109,15.6521724 L8.69565601,15.6522404 Z M4.3478314,13.9131093 L6.08696125,13.9131093 L6.08696125,15.6522404 L5.21739633,15.6522404 L5.21739633,16.5217379 L4.3478314,16.5217379 L4.3478314,13.9131093 Z M4.34782461,16.5217379 L2.60870156,16.5217379 L2.60870156,15.6522404 L1.73913664,15.6522404 L1.73913664,13.9131093 L4.34782461,13.9131093 L4.34782461,16.5217379 Z M16.5217403,13.9131093 L18.2608702,13.9131093 L18.2608702,14.7826749 L17.3913052,14.7826749 L17.3913052,15.6522404 L16.5217403,15.6522404 L16.5217403,13.9131093 Z M11.3043508,13.9131093 L13.0434806,13.9131093 L13.0434806,15.6522404 L11.3043508,15.6522404 L11.3043508,13.9131093 Z M13.9130455,13.9131093 L13.0434806,13.9131093 L13.0434806,14.7826749 L13.9130455,14.7826749 L13.9130455,13.9131093 Z M6.95652617,13.9131093 L6.08696125,13.9131093 L6.08696125,14.7826749 L6.95652617,14.7826749 L6.95652617,13.9131093 Z M18.2608702,12.1739783 L19.1304351,12.1739783 L19.1304351,13.9130414 L18.2608702,13.9130414 L18.2608702,12.1739783 Z M16.5217403,12.1739783 L18.2608702,12.1739783 L18.2608702,13.9130414 L16.5217403,13.9130414 L16.5217403,12.1739783 Z M13.0434806,12.1739783 L14.7826105,12.1739783 L14.7826105,13.9130414 L13.0434806,13.9130414 L13.0434806,12.1739783 Z M13.0434806,13.0434759 L12.1739157,13.0434759 L12.1739157,13.9130414 L13.0434806,13.9130414 L13.0434806,13.0434759 Z M7.82609109,12.1739783 L8.69565601,12.1739783 L8.69565601,13.9130414 L7.82609109,13.9130414 L7.82609109,12.1739783 Z M6.08696125,12.1739783 L7.82609109,12.1739783 L7.82609109,13.9130414 L6.08696125,13.9130414 L6.08696125,12.1739783 Z M4.3478314,12.1739783 L6.08696125,12.1739783 L6.08696125,13.9130414 L4.3478314,13.9130414 L4.3478314,12.1739783 Z M1.73913664,13.9130414 L1.73913664,12.1739783 L4.34782461,12.1739783 L4.34782461,13.9130414 L1.73913664,13.9130414 Z M0.869571715,12.1739783 L1.73913664,12.1739783 L1.73913664,13.9130414 L0.869571715,13.9130414 L0.869571715,12.1739783 Z M15.6521754,12.1739783 L14.7826105,12.1739783 L14.7826105,13.0434759 L15.6521754,13.0434759 L15.6521754,12.1739783 Z M18.2608702,9.56528178 L19.1304351,9.56528178 L19.1304351,12.1739783 L18.2608702,12.1739783 L18.2608702,9.56528178 Z M17.3913052,9.56528178 L18.2608702,9.56528178 L18.2608702,12.1739783 L17.3913052,12.1739783 L17.3913052,9.56528178 Z M14.7826105,9.56528178 L15.6521754,9.56528178 L15.6521754,12.1739783 L14.7826105,12.1739783 L14.7826105,9.56528178 Z M13.9130455,9.56528178 L14.7826105,9.56528178 L14.7826105,12.1739783 L13.9130455,12.1739783 L13.9130455,9.56528178 Z M9.56522094,9.56528178 L11.3043508,9.56528178 L11.3043508,10.4348473 L10.4347859,10.4348473 L10.4347859,12.1739783 L9.56522094,12.1739783 L9.56522094,9.56528178 Z M7.82609109,9.56528178 L9.56522094,9.56528178 L9.56522094,12.1739783 L7.82609109,12.1739783 L7.82609109,9.56528178 Z M6.95652617,11.3044128 L6.95652617,10.4348473 L7.82609109,10.4348473 L7.82609109,12.1739783 L6.08696125,12.1739783 L6.08696125,11.3044128 L6.95652617,11.3044128 Z M5.21739633,11.3044128 L4.3478314,11.3044128 L4.3478314,12.1739783 L5.21739633,12.1739783 L5.21739633,11.3044128 Z M1.73913664,9.56528178 L4.34782461,9.56528178 L4.34782461,12.1739783 L1.73913664,12.1739783 L1.73913664,9.56528178 Z M0.869571715,9.56528178 L1.73913664,9.56528178 L1.73913664,12.1739783 L0.869571715,12.1739783 L0.869571715,9.56528178 Z M0,9.56528178 L0.869564922,9.56528178 L0.869564922,12.1739783 L0,12.1739783 L0,9.56528178 Z M12.1739157,9.56528178 L11.3043508,9.56528178 L11.3043508,10.4348473 L12.1739157,10.4348473 L12.1739157,9.56528178 Z M18.2608702,6.95665318 L19.1304351,6.95665318 L19.1304351,9.56528178 L18.2608702,9.56528178 L18.2608702,6.95665318 Z M17.3913052,6.95665318 L18.2608702,6.95665318 L18.2608702,9.56528178 L17.3913052,9.56528178 L17.3913052,6.95665318 Z M15.6521754,8.69571627 L14.7826105,8.69571627 L14.7826105,9.56528178 L15.6521754,9.56528178 L15.6521754,8.69571627 Z M11.3043508,6.95665318 L13.0434806,6.95665318 L13.0434806,8.69571627 L12.1739157,8.69571627 L12.1739157,9.56528178 L11.3043508,9.56528178 L11.3043508,6.95665318 Z M10.4347859,7.82621869 L10.4347859,6.95665318 L11.3043508,6.95665318 L11.3043508,9.56528178 L9.56522094,9.56528178 L9.56522094,7.82615076 L10.4347859,7.82621869 Z M9.56522094,8.69571627 L8.69565601,8.69571627 L8.69565601,9.56528178 L9.56522094,9.56528178 L9.56522094,8.69571627 Z M1.73913664,6.95665318 L4.34782461,6.95665318 L4.34782461,9.56528178 L1.73913664,9.56528178 L1.73913664,6.95665318 Z M0.869571715,6.95665318 L1.73913664,6.95665318 L1.73913664,9.56528178 L0.869571715,9.56528178 L0.869571715,6.95665318 Z M0.869564922,8.69571627 L0,8.69571627 L0,9.56528178 L0.869564922,9.56528178 L0.869564922,8.69571627 Z M13.0434806,6.95665318 L13.9130455,6.95665318 L13.9130455,8.69571627 L13.0434806,8.69571627 L13.0434806,6.95665318 Z M5.21739633,6.95665318 L4.3478314,6.95665318 L4.3478314,7.82621869 L5.21739633,7.82621869 L5.21739633,6.95665318 Z M19.1304351,6.08701973 L18.2608702,6.08701973 L18.2608702,6.95658524 L19.1304351,6.95658524 L19.1304351,6.08701973 Z M16.5217403,6.95658524 L16.5217403,6.08701973 L18.2608702,6.08701973 L18.2608702,6.95658524 L16.5217403,6.95658524 Z M13.0434806,6.95658524 L13.0434806,6.08701973 L14.7826105,6.08701973 L14.7826105,6.95658524 L13.0434806,6.95658524 Z M11.3043508,6.95658524 L11.3043508,6.08701973 L13.0434806,6.08701973 L13.0434806,6.95658524 L11.3043508,6.95658524 Z M4.3478314,6.95658524 L4.3478314,6.08701973 L6.08696125,6.08701973 L6.08696125,6.95658524 L4.3478314,6.95658524 Z M1.73913664,6.95658524 L1.73913664,6.08701973 L4.34782461,6.08701973 L4.34782461,6.95658524 L1.73913664,6.95658524 Z M1.73913664,6.08701973 L0.869571715,6.08701973 L0.869571715,6.95658524 L1.73913664,6.95658524 L1.73913664,6.08701973 Z M14.7826105,4.34792267 L16.5217403,4.34792267 L16.5217403,5.21748819 L15.6521754,5.21748819 L15.6521754,6.08701973 L14.7826105,6.08701973 L14.7826105,4.34792267 Z M13.0434806,4.34792267 L14.7826105,4.34792267 L14.7826105,6.08701973 L13.0434806,6.08701973 L13.0434806,4.34792267 Z M12.1739157,4.34792267 L13.0434806,4.34792267 L13.0434806,6.08701973 L12.1739157,6.08701973 L12.1739157,4.34792267 Z M6.08696125,4.34792267 L7.82609109,4.34792267 L7.82609109,5.21748819 L6.95652617,5.21748819 L6.95652617,6.08701973 L6.08696125,6.08701973 L6.08696125,4.34792267 Z M4.3478314,4.34792267 L6.08696125,4.34792267 L6.08696125,6.08701973 L4.3478314,6.08701973 L4.3478314,4.34792267 Z M1.73913664,6.08701973 L1.73913664,4.34792267 L4.34782461,4.34792267 L4.34782461,6.08701973 L1.73913664,6.08701973 Z M16.5217403,1.73925331 L18.2608702,1.73925331 L18.2608702,3.4783164 L17.3913052,3.4783164 L17.3913052,4.34782077 L16.5217403,4.34782077 L16.5217403,1.73925331 Z M15.6521754,2.60881882 L15.6521754,1.73925331 L16.5217403,1.73925331 L16.5217403,4.34782077 L14.7826105,4.34782077 L14.7826105,2.60875768 L15.6521754,2.60881882 Z M13.0434806,1.73925331 L14.7826105,1.73925331 L14.7826105,4.34782077 L13.0434806,4.34782077 L13.0434806,1.73925331 Z M11.3043508,1.73925331 L13.0434806,1.73925331 L13.0434806,4.34782077 L11.3043508,4.34782077 L11.3043508,1.73925331 Z M9.56522094,1.73925331 L11.3043508,1.73925331 L11.3043508,4.34782077 L9.56522094,4.34782077 L9.56522094,1.73925331 Z M7.82609109,1.73925331 L9.56522094,1.73925331 L9.56522094,4.34782077 L7.82609109,4.34782077 L7.82609109,1.73925331 Z M6.08696125,1.73925331 L7.82609109,1.73925331 L7.82609109,4.34782077 L6.08696125,4.34782077 L6.08696125,1.73925331 Z M4.3478314,1.73925331 L6.08696125,1.73925331 L6.08696125,4.34782077 L4.3478314,4.34782077 L4.3478314,1.73925331 Z M3.47825969,3.4783164 L3.47825969,2.60875768 L4.34782461,2.60875768 L4.34782461,4.34782077 L2.60870156,4.34782077 L2.60870156,3.47825526 L3.47825969,3.4783164 Z M19.1304351,1.73925331 L18.2608702,1.73925331 L18.2608702,2.60881882 L19.1304351,2.60881882 L19.1304351,1.73925331 Z M18.2608702,1.73923293 L18.2608702,0.869667415 L20,0.869667415 L20,1.73923293 L18.2608702,1.73923293 Z M18.2608702,0.869667415 L17.3913052,0.869667415 L17.3913052,1.73923293 L18.2608702,1.73923293 L18.2608702,0.869667415 Z M11.3043508,1.73923293 L11.3043508,0.869667415 L13.0434806,0.869667415 L13.0434806,1.73923293 L11.3043508,1.73923293 Z M9.56522094,1.73923293 L9.56522094,0.869667415 L11.3043508,0.869667415 L11.3043508,1.73923293 L9.56522094,1.73923293 Z M7.82609109,1.73923293 L7.82609109,0.869667415 L9.56522094,0.869667415 L9.56522094,1.73923293 L7.82609109,1.73923293 Z M6.08696125,1.73923293 L6.08696125,0.869667415 L7.82609109,0.869667415 L7.82609109,1.73923293 L6.08696125,1.73923293 Z M18.2608702,0.869565513 L18.2608702,0 L20,0 L20,0.869565513 L18.2608702,0.869565513 Z" fill="currentColor" fill-rule="nonzero"></path>
  </g>
</svg>