<svg width="20" height="20" viewBox="0 0 20 20" fill="none" xmlns="http://www.w3.org/2000/svg">
<g clip-path="url(#clip0_434_1214)">
<path id="Vector" d="M19.0466 10.9898L19.0466 10.9897C19.0819 10.5637 19.1 10.2353 19.1 10C19.1 4.9743 15.0257 0.9 10 0.9C4.9743 0.9 0.9 4.9743 0.9 10C0.9 15.0257 4.9743 19.1 10 19.1C13.0735 19.1 15.8876 17.5637 17.566 15.0578C17.6232 14.9733 17.6631 14.8784 17.6834 14.7784C17.7038 14.6784 17.7043 14.5753 17.6847 14.4751C17.6651 14.3749 17.626 14.2796 17.5695 14.1945C17.5129 14.1095 17.4402 14.0365 17.3554 13.9797C17.2705 13.9229 17.1753 13.8834 17.0752 13.8635C16.9751 13.8436 16.872 13.8436 16.7719 13.8637C16.6718 13.8837 16.5766 13.9234 16.4919 13.9803C16.4071 14.0372 16.3345 14.1104 16.2781 14.1955L16.3614 14.2507L16.2783 14.1951C14.8848 16.2759 12.551 17.55 10 17.55C5.83018 17.55 2.45 14.1698 2.45 10C2.45 5.83018 5.83018 2.45 10 2.45C14.0435 2.45 17.3446 5.62867 17.5407 9.62365L16.5986 9.0934C16.4194 8.99259 16.2076 8.96706 16.0096 9.02243C15.8117 9.0778 15.6438 9.20955 15.543 9.38868C15.4422 9.56781 15.4167 9.77965 15.4721 9.9776C15.5274 10.1756 15.6592 10.3434 15.8383 10.4442L17.8939 11.6012L17.9429 11.514L17.8939 11.6012C18.3861 11.8781 18.9995 11.5526 19.0466 10.9898Z" fill="currentColor" stroke="currentColor" stroke-width="0.2"/>
</g>
<defs>
<clipPath id="clip0_434_1214">
<rect width="20" height="20" fill="white"/>
</clipPath>
</defs>
</svg>
