<svg viewBox="0 0 14 14">
  <path d="M6.54346 9.38611C6.63347 9.47679 6.74837 9.53864 6.87361 9.56379C6.99889 9.5889 7.12872 9.57615 7.24674 9.52721C7.3647 9.47821 7.46538 9.39514 7.53604 9.28872C7.60664 9.18229 7.64399 9.05722 7.64322 8.92947C7.64087 8.75918 7.57421 8.5961 7.45674 8.47289C7.36629 8.38358 7.25144 8.32315 7.12665 8.29915C7.0019 8.27508 6.87284 8.28854 6.7557 8.33781C6.67673 8.36843 6.60465 8.41432 6.54346 8.47289C6.42599 8.5961 6.35938 8.75918 6.35697 8.92947C6.35648 9.01413 6.37272 9.09802 6.40472 9.17639C6.43671 9.2547 6.48385 9.32601 6.54346 9.38611ZM12.0872 9.25749H9.17387C9.0033 9.25749 8.83968 9.32525 8.71909 9.44583C8.59851 9.56642 8.53075 9.73004 8.53075 9.90061C8.53075 10.0711 8.59851 10.2348 8.71909 10.3553C8.83968 10.4759 9.0033 10.5437 9.17387 10.5437H10.7174C10.0079 11.285 9.0931 11.7973 8.09035 12.0148C7.08749 12.2322 6.04263 12.1448 5.08986 11.7639C4.13715 11.3829 3.32007 10.7258 2.74366 9.87693C2.1672 9.02802 1.85778 8.0262 1.8551 7.0001C1.8551 6.82953 1.78734 6.66596 1.66675 6.54537C1.54611 6.42479 1.38254 6.35697 1.21197 6.35697C1.0414 6.35697 0.877832 6.42479 0.757191 6.54537C0.636605 6.66596 0.568848 6.82953 0.568848 7.0001C0.572238 8.256 0.943293 9.4834 1.63618 10.5308C2.32907 11.5783 3.3135 12.4001 4.46796 12.8945C5.62241 13.389 6.89636 13.5346 8.13262 13.3134C9.36894 13.0922 10.5134 12.5139 11.4248 11.6499V12.7882C11.4248 12.9588 11.4926 13.1224 11.6132 13.243C11.7337 13.3636 11.8974 13.4313 12.0679 13.4313C12.2385 13.4313 12.4021 13.3636 12.5227 13.243C12.6432 13.1224 12.7111 12.9588 12.7111 12.7882V9.89416C12.7094 9.72797 12.6436 9.56893 12.5273 9.45021C12.411 9.33148 12.2533 9.26241 12.0872 9.25749ZM7.0001 0.568848C5.35138 0.573551 3.76741 1.21126 2.57539 2.35029V1.21197C2.57539 1.0414 2.50763 0.877832 2.38704 0.757191C2.2664 0.636605 2.10283 0.568848 1.93226 0.568848C1.76169 0.568848 1.59812 0.636605 1.47754 0.757191C1.35689 0.877832 1.28914 1.0414 1.28914 1.21197V4.10604C1.28914 4.27661 1.35689 4.44018 1.47754 4.56082C1.59812 4.6814 1.76169 4.74916 1.93226 4.74916H4.82632C4.99689 4.74916 5.16047 4.6814 5.28111 4.56082C5.40169 4.44018 5.46945 4.27661 5.46945 4.10604C5.46945 3.93547 5.40169 3.77189 5.28111 3.65125C5.16047 3.53067 4.99689 3.46291 4.82632 3.46291H3.28282C3.99185 2.72195 4.90617 2.2098 5.90832 1.99214C6.91052 1.77454 7.95489 1.86139 8.90732 2.24152C9.85982 2.62171 10.677 3.27785 11.2539 4.12572C11.8308 4.9736 12.1411 5.9746 12.1451 7.0001C12.1451 7.17067 12.2129 7.33429 12.3335 7.45488C12.4541 7.57546 12.6177 7.64322 12.7882 7.64322C12.9588 7.64322 13.1224 7.57546 13.243 7.45488C13.3636 7.33429 13.4313 7.17067 13.4313 7.0001C13.4313 6.15556 13.265 5.31922 12.9418 4.539C12.6186 3.75872 12.1449 3.04975 11.5477 2.4525C10.9505 1.85532 10.2415 1.38161 9.4612 1.05841C8.68097 0.735207 7.84464 0.568848 7.0001 0.568848ZM7.0001 7.64322C7.17067 7.64322 7.33429 7.57546 7.45488 7.45488C7.57546 7.33429 7.64322 7.17067 7.64322 7.0001V5.07072C7.64322 4.90015 7.57546 4.73658 7.45488 4.61594C7.33429 4.49536 7.17067 4.4276 7.0001 4.4276C6.82953 4.4276 6.66596 4.49536 6.54537 4.61594C6.42479 4.73658 6.35697 4.90015 6.35697 5.07072V7.0001C6.35697 7.17067 6.42479 7.33429 6.54537 7.45488C6.66596 7.57546 6.82953 7.64322 7.0001 7.64322Z" fill="currentColor"/>
</svg>