<svg width="20" height="20" viewBox="0 0 20 20" fill="none" xmlns="http://www.w3.org/2000/svg">
<g id="&#229;&#175;&#185;&#229;&#143;&#183;">
<path id="&#230;&#164;&#173;&#229;&#156;&#134;&#229;&#189;&#162;" d="M10 20C15.5228 20 20 15.5228 20 10C20 4.47715 15.5228 0 10 0C4.47715 0 0 4.47715 0 10C0 15.5228 4.47715 20 10 20Z" fill="#54D8A5"/>
<g id="&#232;&#183;&#175;&#229;&#190;&#132;">
<path id="Vector" d="M8.77418 13.4395C8.5647 13.4395 8.35605 13.3613 8.19625 13.2058L4.92658 10.0113C4.60781 9.69947 4.60781 9.1935 4.92658 8.8817C5.24618 8.5699 5.76366 8.5699 6.08243 8.8817L8.77418 11.5115L13.9176 6.48641C14.2363 6.1738 14.7538 6.1738 15.0734 6.48641C15.3922 6.79821 15.3922 7.30337 15.0734 7.61517L9.35211 13.2058C9.19231 13.3613 8.98283 13.4395 8.77418 13.4395Z" fill="white"/>
</g>
</g>
</svg>
