<svg width="20" height="20" viewBox="0 0 20 20" fill="none" xmlns="http://www.w3.org/2000/svg">
<g id="Export">
<path id="Vector" d="M10.625 14.375C10.625 14.5408 10.5592 14.6997 10.4419 14.8169C10.3247 14.9342 10.1658 15 10 15C9.83424 15 9.67527 14.9342 9.55806 14.8169C9.44085 14.6997 9.375 14.5408 9.375 14.375V5.625C9.375 5.45924 9.44085 5.30027 9.55806 5.18306C9.67527 5.06585 9.83424 5 10 5C10.1658 5 10.3247 5.06585 10.4419 5.18306C10.5592 5.30027 10.625 5.45924 10.625 5.625V14.375Z" fill="currentColor"/>
<path id="Vector_2" d="M15.625 16.2507V13.1257C15.625 12.96 15.6908 12.801 15.8081 12.6838C15.9253 12.5666 16.0842 12.5007 16.25 12.5007C16.4158 12.5007 16.5747 12.5666 16.6919 12.6838C16.8092 12.801 16.875 12.96 16.875 13.1257V16.8757C16.875 17.0415 16.8092 17.2004 16.6919 17.3177C16.5747 17.4349 16.4158 17.5007 16.25 17.5007H3.75C3.58424 17.5007 3.42527 17.4349 3.30806 17.3177C3.19085 17.2004 3.125 17.0415 3.125 16.8757V13.1257C3.125 12.96 3.19085 12.801 3.30806 12.6838C3.42527 12.5666 3.58424 12.5007 3.75 12.5007C3.91576 12.5007 4.07473 12.5666 4.19194 12.6838C4.30915 12.801 4.375 12.96 4.375 13.1257V16.2507H15.625ZM9.6875 5.30071L6.7125 8.55071C6.59978 8.67338 6.44295 8.74624 6.27652 8.75327C6.11008 8.7603 5.94766 8.70093 5.825 8.58821C5.70234 8.4755 5.62948 8.31867 5.62244 8.15223C5.61541 7.98579 5.67478 7.82338 5.7875 7.70071L9.225 3.95071C9.28358 3.88627 9.35498 3.83477 9.43463 3.79953C9.51427 3.7643 9.60041 3.74609 9.6875 3.74609C9.77459 3.74609 9.86073 3.7643 9.94037 3.79953C10.02 3.83477 10.0914 3.88627 10.15 3.95071L13.5875 7.70071C13.7002 7.82338 13.7596 7.98579 13.7526 8.15223C13.7455 8.31867 13.6727 8.4755 13.55 8.58821C13.4273 8.70093 13.2649 8.7603 13.0985 8.75327C12.932 8.74624 12.7752 8.67338 12.6625 8.55071L9.6875 5.30071Z" fill="currentColor"/>
</g>
</svg>
